<svg width="31" height="19" viewBox="0 0 31 19" fill="none" xmlns="http://www.w3.org/2000/svg">
<path fill-rule="evenodd" clip-rule="evenodd" d="M15.7369 16.2742C14.1697 17.5952 12.1369 18.3926 9.9156 18.3926C4.95916 18.3926 0.941162 14.4224 0.941162 9.52493C0.941162 4.62747 4.95916 0.657288 9.9156 0.657288C12.1369 0.657288 14.1698 1.45472 15.7369 2.77567C17.304 1.45473 19.3368 0.657311 21.5581 0.657311C26.5146 0.657311 30.5326 4.62749 30.5326 9.52496C30.5326 14.4224 26.5146 18.3926 21.5581 18.3926C19.3368 18.3926 17.304 17.5952 15.7369 16.2742Z" fill="#ED0006"/>
<path fill-rule="evenodd" clip-rule="evenodd" d="M15.7368 16.2742C17.6665 14.6477 18.89 12.2275 18.89 9.52493C18.89 6.82234 17.6665 4.40212 15.7368 2.77563C17.304 1.4547 19.3368 0.657288 21.5581 0.657288C26.5145 0.657288 30.5325 4.62747 30.5325 9.52493C30.5325 14.4224 26.5145 18.3926 21.5581 18.3926C19.3368 18.3926 17.304 17.5952 15.7368 16.2742Z" fill="#F9A000"/>
<path fill-rule="evenodd" clip-rule="evenodd" d="M15.7369 16.2743C17.6665 14.6478 18.8901 12.2276 18.8901 9.52501C18.8901 6.82244 17.6665 4.40225 15.7369 2.77576C13.8073 4.40225 12.5838 6.82244 12.5838 9.52501C12.5838 12.2276 13.8073 14.6478 15.7369 16.2743Z" fill="#FF5E00"/>
</svg>
