<svg width="45" height="26" viewBox="0 0 65 26" fill="none" xmlns="http://www.w3.org/2000/svg">
<g clip-path="url(#clip0_105_2014)">
<rect width="11" height="11" transform="translate(5)" fill="#1A1A1A"/>
<path d="M13.7083 5.04187H7.29167C6.78541 5.04187 6.375 5.45228 6.375 5.95854V9.16687C6.375 9.67313 6.78541 10.0835 7.29167 10.0835H13.7083C14.2146 10.0835 14.625 9.67313 14.625 9.16687V5.95854C14.625 5.45228 14.2146 5.04187 13.7083 5.04187Z" stroke="white" stroke-width="0.916667" stroke-linecap="round" stroke-linejoin="round"/>
<path d="M8.20837 5.04187V3.20854C8.20837 2.60075 8.44982 2.01785 8.87959 1.58808C9.30936 1.15831 9.89225 0.91687 10.5 0.91687C11.1078 0.91687 11.6907 1.15831 12.1205 1.58808C12.5503 2.01785 12.7917 2.60075 12.7917 3.20854V5.04187" stroke="white" stroke-width="0.916667" stroke-linecap="round" stroke-linejoin="round"/>
</g>
<path d="M21.278 9.077C20.772 9.077 20.3173 8.989 19.914 8.813C19.518 8.62967 19.2063 8.38033 18.979 8.065C18.7517 7.74233 18.6343 7.372 18.627 6.954H19.694C19.7307 7.31333 19.8773 7.61767 20.134 7.867C20.398 8.109 20.7793 8.23 21.278 8.23C21.7547 8.23 22.1287 8.11267 22.4 7.878C22.6787 7.636 22.818 7.328 22.818 6.954C22.818 6.66067 22.7373 6.42233 22.576 6.239C22.4147 6.05567 22.213 5.91633 21.971 5.821C21.729 5.72567 21.4027 5.623 20.992 5.513C20.486 5.381 20.079 5.249 19.771 5.117C19.4703 4.985 19.21 4.77967 18.99 4.501C18.7773 4.215 18.671 3.83367 18.671 3.357C18.671 2.939 18.7773 2.56867 18.99 2.246C19.2027 1.92333 19.4997 1.674 19.881 1.498C20.2697 1.322 20.7133 1.234 21.212 1.234C21.9307 1.234 22.5173 1.41367 22.972 1.773C23.434 2.13233 23.6943 2.609 23.753 3.203H22.653C22.6163 2.90967 22.4623 2.653 22.191 2.433C21.9197 2.20567 21.5603 2.092 21.113 2.092C20.695 2.092 20.354 2.202 20.09 2.422C19.826 2.63467 19.694 2.93533 19.694 3.324C19.694 3.60267 19.771 3.83 19.925 4.006C20.0863 4.182 20.2807 4.31767 20.508 4.413C20.7427 4.501 21.069 4.60367 21.487 4.721C21.993 4.86033 22.4 4.99967 22.708 5.139C23.016 5.271 23.28 5.48 23.5 5.766C23.72 6.04467 23.83 6.426 23.83 6.91C23.83 7.284 23.731 7.636 23.533 7.966C23.335 8.296 23.0417 8.56367 22.653 8.769C22.2643 8.97433 21.806 9.077 21.278 9.077ZM30.8031 5.755C30.8031 5.94567 30.7921 6.14733 30.7701 6.36H25.9521C25.9887 6.954 26.1904 7.41967 26.5571 7.757C26.9311 8.087 27.3821 8.252 27.9101 8.252C28.3427 8.252 28.7021 8.153 28.9881 7.955C29.2814 7.74967 29.4867 7.47833 29.6041 7.141H30.6821C30.5207 7.72033 30.1981 8.19333 29.7141 8.56C29.2301 8.91933 28.6287 9.099 27.9101 9.099C27.3381 9.099 26.8247 8.97067 26.3701 8.714C25.9227 8.45733 25.5707 8.09433 25.3141 7.625C25.0574 7.14833 24.9291 6.59833 24.9291 5.975C24.9291 5.35167 25.0537 4.80533 25.3031 4.336C25.5524 3.86667 25.9007 3.50733 26.3481 3.258C26.8027 3.00133 27.3234 2.873 27.9101 2.873C28.4821 2.873 28.9881 2.99767 29.4281 3.247C29.8681 3.49633 30.2054 3.841 30.4401 4.281C30.6821 4.71367 30.8031 5.205 30.8031 5.755ZM29.7691 5.546C29.7691 5.16467 29.6847 4.83833 29.5161 4.567C29.3474 4.28833 29.1164 4.07933 28.8231 3.94C28.5371 3.79333 28.2181 3.72 27.8661 3.72C27.3601 3.72 26.9274 3.88133 26.5681 4.204C26.2161 4.52667 26.0144 4.974 25.9631 5.546H29.7691ZM31.7503 5.975C31.7503 5.35167 31.875 4.809 32.1243 4.347C32.3737 3.87767 32.7183 3.51467 33.1583 3.258C33.6057 3.00133 34.1153 2.873 34.6873 2.873C35.428 2.873 36.0367 3.05267 36.5133 3.412C36.9973 3.77133 37.3163 4.27 37.4703 4.908H36.3923C36.2897 4.54133 36.088 4.25167 35.7873 4.039C35.494 3.82633 35.1273 3.72 34.6873 3.72C34.1153 3.72 33.6533 3.918 33.3013 4.314C32.9493 4.70267 32.7733 5.25633 32.7733 5.975C32.7733 6.701 32.9493 7.262 33.3013 7.658C33.6533 8.054 34.1153 8.252 34.6873 8.252C35.1273 8.252 35.494 8.14933 35.7873 7.944C36.0807 7.73867 36.2823 7.44533 36.3923 7.064H37.4703C37.309 7.68 36.9863 8.175 36.5023 8.549C36.0183 8.91567 35.4133 9.099 34.6873 9.099C34.1153 9.099 33.6057 8.97067 33.1583 8.714C32.7183 8.45733 32.3737 8.09433 32.1243 7.625C31.875 7.15567 31.7503 6.60567 31.7503 5.975ZM44.152 2.972V9H43.151V8.109C42.9603 8.417 42.6927 8.659 42.348 8.835C42.0107 9.00367 41.6367 9.088 41.226 9.088C40.7567 9.088 40.335 8.99267 39.961 8.802C39.587 8.604 39.29 8.31067 39.07 7.922C38.8573 7.53333 38.751 7.06033 38.751 6.503V2.972H39.741V6.371C39.741 6.965 39.8913 7.42333 40.192 7.746C40.4927 8.06133 40.9033 8.219 41.424 8.219C41.9593 8.219 42.381 8.054 42.689 7.724C42.997 7.394 43.151 6.91367 43.151 6.283V2.972H44.152ZM46.8431 3.951C47.0191 3.60633 47.2685 3.33867 47.5911 3.148C47.9211 2.95733 48.3208 2.862 48.7901 2.862V3.896H48.5261C47.4041 3.896 46.8431 4.50467 46.8431 5.722V9H45.8421V2.972H46.8431V3.951ZM55.4456 5.755C55.4456 5.94567 55.4346 6.14733 55.4126 6.36H50.5946C50.6313 6.954 50.833 7.41967 51.1996 7.757C51.5736 8.087 52.0246 8.252 52.5526 8.252C52.9853 8.252 53.3446 8.153 53.6306 7.955C53.924 7.74967 54.1293 7.47833 54.2466 7.141H55.3246C55.1633 7.72033 54.8406 8.19333 54.3566 8.56C53.8726 8.91933 53.2713 9.099 52.5526 9.099C51.9806 9.099 51.4673 8.97067 51.0126 8.714C50.5653 8.45733 50.2133 8.09433 49.9566 7.625C49.7 7.14833 49.5716 6.59833 49.5716 5.975C49.5716 5.35167 49.6963 4.80533 49.9456 4.336C50.195 3.86667 50.5433 3.50733 50.9906 3.258C51.4453 3.00133 51.966 2.873 52.5526 2.873C53.1246 2.873 53.6306 2.99767 54.0706 3.247C54.5106 3.49633 54.848 3.841 55.0826 4.281C55.3246 4.71367 55.4456 5.205 55.4456 5.755ZM54.4116 5.546C54.4116 5.16467 54.3273 4.83833 54.1586 4.567C53.99 4.28833 53.759 4.07933 53.4656 3.94C53.1796 3.79333 52.8606 3.72 52.5086 3.72C52.0026 3.72 51.57 3.88133 51.2106 4.204C50.8586 4.52667 50.657 4.974 50.6056 5.546H54.4116Z" fill="white"/>
<path d="M11.8032 16.216C11.8032 16.664 11.6952 17.084 11.4792 17.476C11.2712 17.868 10.9392 18.184 10.4832 18.424C10.0352 18.664 9.46719 18.784 8.77919 18.784H7.37519V22H5.69519V13.624H8.77919C9.42719 13.624 9.97919 13.736 10.4352 13.96C10.8912 14.184 11.2312 14.492 11.4552 14.884C11.6872 15.276 11.8032 15.72 11.8032 16.216ZM8.70719 17.428C9.17119 17.428 9.51519 17.324 9.73919 17.116C9.96319 16.9 10.0752 16.6 10.0752 16.216C10.0752 15.4 9.61919 14.992 8.70719 14.992H7.37519V17.428H8.70719ZM12.564 18.652C12.564 17.98 12.696 17.384 12.96 16.864C13.232 16.344 13.596 15.944 14.052 15.664C14.516 15.384 15.032 15.244 15.6 15.244C16.096 15.244 16.528 15.344 16.896 15.544C17.272 15.744 17.572 15.996 17.796 16.3V15.352H19.488V22H17.796V21.028C17.58 21.34 17.28 21.6 16.896 21.808C16.52 22.008 16.084 22.108 15.588 22.108C15.028 22.108 14.516 21.964 14.052 21.676C13.596 21.388 13.232 20.984 12.96 20.464C12.696 19.936 12.564 19.332 12.564 18.652ZM17.796 18.676C17.796 18.268 17.716 17.92 17.556 17.632C17.396 17.336 17.18 17.112 16.908 16.96C16.636 16.8 16.344 16.72 16.032 16.72C15.72 16.72 15.432 16.796 15.168 16.948C14.904 17.1 14.688 17.324 14.52 17.62C14.36 17.908 14.28 18.252 14.28 18.652C14.28 19.052 14.36 19.404 14.52 19.708C14.688 20.004 14.904 20.232 15.168 20.392C15.44 20.552 15.728 20.632 16.032 20.632C16.344 20.632 16.636 20.556 16.908 20.404C17.18 20.244 17.396 20.02 17.556 19.732C17.716 19.436 17.796 19.084 17.796 18.676ZM27.4888 15.352L23.3728 25.144H21.5848L23.0248 21.832L20.3608 15.352H22.2448L23.9608 19.996L25.7008 15.352H27.4888ZM36.6504 15.256C37.4664 15.256 38.1224 15.508 38.6184 16.012C39.1224 16.508 39.3744 17.204 39.3744 18.1V22H37.6944V18.328C37.6944 17.808 37.5624 17.412 37.2984 17.14C37.0344 16.86 36.6744 16.72 36.2184 16.72C35.7624 16.72 35.3984 16.86 35.1264 17.14C34.8624 17.412 34.7304 17.808 34.7304 18.328V22H33.0504V18.328C33.0504 17.808 32.9184 17.412 32.6544 17.14C32.3904 16.86 32.0304 16.72 31.5744 16.72C31.1104 16.72 30.7424 16.86 30.4704 17.14C30.2064 17.412 30.0744 17.808 30.0744 18.328V22H28.3944V15.352H30.0744V16.156C30.2904 15.876 30.5664 15.656 30.9024 15.496C31.2464 15.336 31.6224 15.256 32.0304 15.256C32.5504 15.256 33.0144 15.368 33.4224 15.592C33.8304 15.808 34.1464 16.12 34.3704 16.528C34.5864 16.144 34.8984 15.836 35.3064 15.604C35.7224 15.372 36.1704 15.256 36.6504 15.256ZM47.1486 18.532C47.1486 18.772 47.1326 18.988 47.1006 19.18H42.2406C42.2806 19.66 42.4486 20.036 42.7446 20.308C43.0406 20.58 43.4046 20.716 43.8366 20.716C44.4606 20.716 44.9046 20.448 45.1686 19.912H46.9806C46.7886 20.552 46.4206 21.08 45.8766 21.496C45.3326 21.904 44.6646 22.108 43.8726 22.108C43.2326 22.108 42.6566 21.968 42.1446 21.688C41.6406 21.4 41.2446 20.996 40.9566 20.476C40.6766 19.956 40.5366 19.356 40.5366 18.676C40.5366 17.988 40.6766 17.384 40.9566 16.864C41.2366 16.344 41.6286 15.944 42.1326 15.664C42.6366 15.384 43.2166 15.244 43.8726 15.244C44.5046 15.244 45.0686 15.38 45.5646 15.652C46.0686 15.924 46.4566 16.312 46.7286 16.816C47.0086 17.312 47.1486 17.884 47.1486 18.532ZM45.4086 18.052C45.4006 17.62 45.2446 17.276 44.9406 17.02C44.6366 16.756 44.2646 16.624 43.8246 16.624C43.4086 16.624 43.0566 16.752 42.7686 17.008C42.4886 17.256 42.3166 17.604 42.2526 18.052H45.4086ZM52.0589 15.256C52.8509 15.256 53.4909 15.508 53.9789 16.012C54.4669 16.508 54.7109 17.204 54.7109 18.1V22H53.0309V18.328C53.0309 17.8 52.8989 17.396 52.6349 17.116C52.3709 16.828 52.0109 16.684 51.5549 16.684C51.0909 16.684 50.7229 16.828 50.4509 17.116C50.1869 17.396 50.0549 17.8 50.0549 18.328V22H48.3749V15.352H50.0549V16.18C50.2789 15.892 50.5629 15.668 50.9069 15.508C51.2589 15.34 51.6429 15.256 52.0589 15.256ZM58.2645 16.732V19.948C58.2645 20.172 58.3165 20.336 58.4205 20.44C58.5325 20.536 58.7165 20.584 58.9725 20.584H59.7525V22H58.6965C57.2805 22 56.5725 21.312 56.5725 19.936V16.732H55.7805V15.352H56.5725V13.708H58.2645V15.352H59.7525V16.732H58.2645Z" fill="white"/>
<defs>
<clipPath id="clip0_105_2014">
<rect width="11" height="11" fill="white" transform="translate(5)"/>
</clipPath>
</defs>
</svg>
