<svg width="32" height="12" viewBox="0 0 32 12" fill="none" xmlns="http://www.w3.org/2000/svg">
<path fill-rule="evenodd" clip-rule="evenodd" d="M8.22827 10.9888H5.50214L3.45788 2.96045C3.36085 2.59114 3.15483 2.26466 2.85178 2.11078C2.09548 1.72408 1.26209 1.41633 0.352936 1.26111V0.952021H4.74451C5.35061 0.952021 5.80519 1.41633 5.88095 1.95557L6.94163 7.74669L9.66643 0.952021H12.3168L8.22827 10.9888ZM13.8321 10.9888H11.2575L13.3775 0.952021H15.9521L13.8321 10.9888ZM19.283 3.73255C19.3587 3.19198 19.8133 2.88289 20.3437 2.88289C21.1771 2.80528 22.0849 2.96049 22.8425 3.34586L23.2971 1.18489C22.5395 0.875796 21.7061 0.720581 20.9498 0.720581C18.4509 0.720581 16.6326 2.11083 16.6326 4.04031C16.6326 5.50816 17.9206 6.27888 18.8297 6.74319C19.8133 7.20616 20.1921 7.51525 20.1164 7.97822C20.1164 8.67267 19.3587 8.98177 18.6024 8.98177C17.6933 8.98177 16.7841 8.75028 15.9521 8.36358L15.4975 10.5259C16.4067 10.9112 17.3902 11.0665 18.2994 11.0665C21.1013 11.1427 22.8425 9.75383 22.8425 7.66913C22.8425 5.04385 19.283 4.88998 19.283 3.73255V3.73255ZM31.8529 10.9888L29.8087 0.952021H27.6129C27.1583 0.952021 26.7037 1.26111 26.5522 1.72408L22.7667 10.9888H25.4171L25.9461 9.5223H29.2026L29.5056 10.9888H31.8529ZM27.9917 3.65498L28.748 7.43768H26.628L27.9917 3.65498Z" fill="white"/>
</svg>
